<?xml version="1.0" encoding="utf-8"?>
<!-- Generator: Adobe Illustrator 16.0.0, SVG Export Plug-In . SVG Version: 6.00 Build 0)  -->
<!DOCTYPE svg PUBLIC "-//W3C//DTD SVG 1.1//EN" "http://www.w3.org/Graphics/SVG/1.1/DTD/svg11.dtd">
<svg version="1.1" xmlns="http://www.w3.org/2000/svg" xmlns:xlink="http://www.w3.org/1999/xlink" x="0px" y="0px" width="300px"
	 height="400px" viewBox="0 0 300 400" enable-background="new 0 0 300 400" xml:space="preserve">
<g id="wings">
	<g id="left">
		<g>
			
				<ellipse transform="matrix(-0.0194 -0.9998 0.9998 -0.0194 -109.8293 315.5715)" fill="#020000" stroke="#000000" stroke-width="1.2583" stroke-miterlimit="10" cx="99.835" cy="211.644" rx="19.694" ry="44.267"/>
			
				<ellipse transform="matrix(-0.0194 -0.9998 0.9998 -0.0194 -105.2172 322.711)" fill="#FFFFFF" stroke="#000000" stroke-width="1.0054" stroke-miterlimit="10" cx="105.642" cy="212.952" rx="15.304" ry="36.364"/>
		</g>
		<g>
			<path fill="#020000" stroke="#000000" stroke-width="2.1141" stroke-miterlimit="10" d="M83.776,141.91
				c36.462,3.539,64.418,22.94,62.438,43.333c-1.977,20.395-33.143,34.059-69.606,30.519c-36.464-3.538-64.418-22.94-62.439-43.333
				C16.147,152.035,47.311,138.372,83.776,141.91z"/>
			
				<ellipse transform="matrix(0.0966 -0.9953 0.9953 0.0966 -101.4855 252.8603)" fill="#FFFFFF" stroke="#000000" stroke-width="1.6891" stroke-miterlimit="10" cx="88.554" cy="182.337" rx="28.83" ry="54.491"/>
		</g>
	</g>
	<g id="right">
		<g>
			
				<ellipse transform="matrix(0.0194 -0.9998 0.9998 0.0194 -13.9692 409.0445)" fill="#020000" stroke="#000000" stroke-width="1.2583" stroke-miterlimit="10" cx="201.547" cy="211.644" rx="19.694" ry="44.267"/>
			
				<ellipse transform="matrix(0.0195 -0.9998 0.9998 0.0195 -20.9796 404.5113)" fill="#FFFFFF" stroke="#000000" stroke-width="1.0054" stroke-miterlimit="10" cx="195.741" cy="212.952" rx="15.304" ry="36.364"/>
		</g>
		<g>
			<path fill="#020000" stroke="#000000" stroke-width="2.1141" stroke-miterlimit="10" d="M217.607,141.91
				c-36.463,3.539-64.418,22.94-62.438,43.333c1.977,20.395,33.143,34.059,69.606,30.519c36.463-3.538,64.418-22.94,62.439-43.333
				C285.235,152.035,254.072,138.372,217.607,141.91z"/>
			<path fill="#FFFFFF" stroke="#000000" stroke-width="1.6891" stroke-miterlimit="10" d="M210.043,153.642
				c-29.955,2.908-52.988,18.112-51.449,33.96c1.537,15.848,27.065,26.338,57.021,23.431c29.956-2.907,52.991-18.11,51.452-33.958
				C265.529,161.225,240,150.735,210.043,153.642z"/>
		</g>
	</g>
</g>
<g id="thorax">
	<g id="stinger">
		<g>
			<path d="M133.345,232c0,0,9.83,11.584,16.317,36.409c5.995-24.37,17.666-36.409,17.666-36.409H133.345z"/>
		</g>
	</g>
	
		<ellipse id="body" stroke="#000000" stroke-width="1.8126" stroke-miterlimit="10" cx="150.449" cy="196.55" rx="40.936" ry="46.834"/>
	<path id="bottom_stripe" fill="#F7EA52" d="M112.895,204.5c0,0,37.442,19.992,75.294-0.5c-1.377,9.553-5.666,16-5.666,16
		s-31.523,19.15-64.86-0.196C113.512,209.972,112.895,204.5,112.895,204.5z"/>
	<g id="top_stripe">
		<path fill="#F7EA52" d="M116.083,177c0,0,33.934,14.524,69.083,0.332c1.769,3.74,3.815,10.244,3.668,14.603
			c0,0-42.603,18.523-75.939-0.823C112.486,183.862,116.083,177,116.083,177z"/>
	</g>
</g>
<g id="antenna">
	<path fill="none" stroke="#000000" stroke-width="3" stroke-miterlimit="10" d="M111.586,88.613c0,0,28.505,16.997,27.462,36.31"/>
	<path fill="none" stroke="#000000" stroke-width="3" stroke-miterlimit="10" d="M189.078,88.613c0,0-28.506,16.997-27.463,36.31"/>
	<circle stroke="#000000" stroke-width="3" stroke-miterlimit="10" cx="109.575" cy="88.425" r="6.989"/>
	<circle stroke="#000000" stroke-width="3" stroke-miterlimit="10" cx="189.575" cy="88.425" r="6.989"/>
</g>
<g id="head">
	<circle fill="#020000" stroke="#000000" stroke-width="1.5759" stroke-miterlimit="10" cx="150.518" cy="138.054" r="28.285"/>
</g>
<g id="Layer_7">
</g>
</svg>
